<svg width="40" height="40" viewBox="0 0 40 40" fill="none" xmlns="http://www.w3.org/2000/svg">
<path fill-rule="evenodd" clip-rule="evenodd" d="M14.7467 3.83204C18.161 2.72265 21.839 2.72265 25.2533 3.83204C28.6676 4.94142 31.6431 7.10324 33.7533 10.0077C35.8635 12.9121 37 16.41 37 20C37 20.8284 37.6716 21.5 38.5 21.5C39.3284 21.5 40 20.8284 40 20C40 15.7764 38.6629 11.6612 36.1803 8.2443C33.6978 4.82734 30.1972 2.28403 26.1803 0.978869C22.1635 -0.32629 17.8365 -0.32629 13.8197 0.97887C9.80279 2.28403 6.30222 4.82734 3.81966 8.2443C3.33272 8.91451 3.4813 9.85256 4.15151 10.3395C4.82172 10.8264 5.75977 10.6779 6.24671 10.0077C8.35689 7.10324 11.3324 4.94143 14.7467 3.83204ZM25.2533 36.168C21.839 37.2773 18.161 37.2773 14.7467 36.168C11.3324 35.0586 8.35689 32.8968 6.24671 29.9924C4.13653 27.0879 3 23.5901 3 20C3 19.1716 2.32842 18.5 1.5 18.5C0.671572 18.5 0 19.1716 0 20C0 24.2236 1.3371 28.3388 3.81966 31.7557C6.30222 35.1727 9.80279 37.716 13.8197 39.0211C17.8365 40.3263 22.1635 40.3263 26.1803 39.0211C30.1972 37.716 33.6978 35.1727 36.1803 31.7557C36.6673 31.0855 36.5187 30.1474 35.8485 29.6605C35.1783 29.1736 34.2402 29.3221 33.7533 29.9923C31.6431 32.8968 28.6676 35.0586 25.2533 36.168Z" fill="white"/>
</svg>
