<svg width="26" height="30" viewBox="0 0 26 30" fill="none" xmlns="http://www.w3.org/2000/svg">
<path d="M13.2526 17.4718C15.5831 17.4718 17.4723 15.5826 17.4723 13.2521C17.4723 10.9216 15.5831 9.03241 13.2526 9.03241C10.9222 9.03241 9.03296 10.9216 9.03296 13.2521C9.03296 15.5826 10.9222 17.4718 13.2526 17.4718Z" stroke="white" stroke-width="2.5" stroke-linecap="round" stroke-linejoin="round"/>
<path d="M21.2094 21.209L15.2414 27.1771C14.7139 27.704 13.9988 28 13.2532 28C12.5076 28 11.7925 27.704 11.265 27.1771L5.29558 21.209C3.72195 19.6353 2.65031 17.6303 2.21618 15.4475C1.78204 13.2648 2.00491 11.0023 2.85661 8.94622C3.7083 6.89013 5.15056 5.13276 7.00101 3.89635C8.85146 2.65993 11.027 2 13.2525 2C15.478 2 17.6535 2.65993 19.504 3.89635C21.3545 5.13276 22.7967 6.89013 23.6484 8.94622C24.5001 11.0023 24.723 13.2648 24.2888 15.4475C23.8547 17.6303 22.7831 19.6353 21.2094 21.209V21.209Z" stroke="white" stroke-width="2.5" stroke-linecap="round" stroke-linejoin="round"/>
</svg>
