<svg width="24" height="24" viewBox="0 0 24 24" fill="none" xmlns="http://www.w3.org/2000/svg">
<path d="M23.6591 21.6637L19.0579 17.0624C21.258 14.1806 21.8357 10.3757 20.5902 6.97063C19.3447 3.56577 16.4481 1.03191 12.908 0.250064C9.36795 -0.531786 5.67334 0.546499 3.11006 3.11013C0.546771 5.67376 -0.531809 9.36834 0.250024 12.9082C1.03186 16.4484 3.56569 19.345 6.97052 20.5905C10.3753 21.836 14.1802 21.2582 17.0622 19.0581L21.6635 23.6594C22.0278 23.9717 22.5255 24.0779 22.9857 23.942C23.4458 23.8058 23.8058 23.4458 23.942 22.9857C24.0779 22.5256 23.9714 22.0281 23.6591 21.6637ZM10.6267 18.4144C8.56153 18.4144 6.58098 17.5939 5.12062 16.1336C3.66027 14.6733 2.83993 12.6928 2.83993 10.6275C2.83993 8.56223 3.66035 6.58173 5.12062 5.12136C6.58098 3.66099 8.56145 2.84064 10.6267 2.84064C12.692 2.84064 14.6724 3.66107 16.1328 5.12136C17.5931 6.58173 18.4135 8.56223 18.4135 10.6275C18.4135 12.6928 17.5931 14.6733 16.1328 16.1336C14.6724 17.594 12.692 18.4144 10.6267 18.4144Z" fill="#B9B9B9"/>
</svg>
